<?xml version="1.0" encoding="UTF-8"?>
<svg id="Layer_1" data-name="Layer 1" xmlns="http://www.w3.org/2000/svg" viewBox="0 0 740.62 100.38">
  <defs>
    <style>
      .cls-1 {
        fill: #fff;
        stroke-width: 0px;
      }
    </style>
  </defs>
  <path class="cls-1" d="m190.9,0c-8.25,0-26.21,1.34-39.12,19.57-9.05,12.65-9.72,25.68-9.72,31.4,0,6.65,1.19,25.42,16.9,38.6,9.18,7.86,19.85,10.8,31.82,10.8,20.9,0,32.86-9.59,38.45-15.98,2.26-2.66,4-5.07,7.32-11.2l-25.43-12.22c-.93,2.79-1.46,3.99-2.12,5.32-1.86,3.2-6.65,10.1-16.9,10.1-2.27,0-6.52-.13-11.18-3.72-4.53-3.59-8.65-10.52-8.65-23.43,0-2.39-.42-15.98,8.9-22.9,1.86-1.33,5.34-3.33,10.8-3.33,11.98-.13,16.62,9.58,18.22,12.78.4.93.93,1.87,1.32,2.8l24.9-12.38c-2-3.59-3.33-5.86-6.12-9.05-5.19-5.99-17.97-17.18-39.4-17.18h0ZM46.27,3.45v55.78c0,9.85.67,13.71,2.4,18.38,4.39,11.58,13.98,16.24,17.97,17.97,9.32,4.13,18.62,4.4,22.08,4.4,16.77,0,33.82-6.54,40.35-23.58,2.13-5.59,2.93-10.63,2.93-16.62V3.45h-29.95v58.7c0,2.8,0,4.93-.93,7.33-2.66,7.05-10.13,7.45-12.12,7.45-2.13,0-9.58-.39-11.98-7.57-1.06-2.93-.92-6.27-.92-7.2V3.45h-29.83Zm198.68,0v93.98h66.03v-23.68h-36.35V3.45h-29.68Zm-228.88.35s-.15.23-.15.27v.1s.02.05.05.05c.04,0,.05.1-.03.1s-.1.04-.1.07v.08s-.31.37-.6.6c-.03.03-.06.07-.1.07h-.1s-.05,0-.05.03v.18s.03.02.05.02h.07s.05.05.05.12,0,.11-.03.13h-.1s-.05.03-.05.05v.18s.03.02.05.02c0,0,.02,0,.02,0,.04,0,.1,0,.1.05v1.72s-.12.07-.12.15v.12s-.02.1-.07.1h-.28c-.06,0-.1.04-.1.08v.3s.04.05.07.05c.13,0,.22.03.22.12v.12c0,.09-.1.12-.2.15-.19.07-.61.19-.62.5-.73.33-2.05,1.05-3,2.47-1.21,1.66-1.11,3.98-1.12,4.3,0,.07-.05.1-.1.1h-.15c-.06,0-.05.05-.05.05v.25s.02.05-.05.05h-.25s-.05.01-.05.07v.25s-.01.05-.07.05h-.25s-.05,0-.05.07v.25s0,.05.02.05c.07.01.23.09.23.25,0,.27.16.28.22.28v1c0,.23-.17.32-.27.35-.02,0-.05.05-.05.07v1l7-1.52h.03l7.02,1.52v-1s-.03-.07-.05-.07c-.1-.02-.27-.12-.27-.35v-1c.07,0,.2,0,.2-.28,0-.16.15-.24.23-.25.02,0,.05-.02.05-.05v-.25c0-.07-.07-.07-.07-.07h-.22c-.07,0-.08-.05-.08-.05v-.25c0-.06-.07-.07-.07-.07h-.2c-.07,0-.07-.05-.07-.05v-.25s-.02-.05-.07-.05h-.12c-.05,0-.1-.03-.1-.1,0-.32.09-2.64-1.12-4.3-.95-1.43-2.25-2.14-2.98-2.47,0-.31-.48-.43-.67-.5-.1-.04-.18-.06-.18-.15v-.12c0-.09.09-.13.22-.12.04,0,.08-.02.08-.05v-.3s-.07-.08-.12-.08h-.25c-.06,0-.1-.06-.1-.1v-.12c0-.08-.05-.13-.1-.15v-1.72c0-.06.06-.05.1-.05.02,0,.05,0,.05-.02v-.18s-.03-.05-.05-.05h-.05s-.07-.05-.07-.13c0-.08.04-.12.07-.12h.05s.05,0,.05-.02v-.18s-.03-.03-.05-.03h-.07s-.07-.04-.1-.07c-.29-.23-.57-.55-.57-.6,0-.03-.02-.04-.02-.08,0-.03-.05-.07-.12-.07s-.04-.1,0-.1c.02,0,.02-.01.02-.05v-.1s-.15-.27-.15-.27h-.03Zm0,16.12S.83,23.19.8,23.2c-.08.02-.07.1-.07.1l.22.77h.03s.24-.04.38.18l.22,1.27s.01.08.1.08h.68v.38s.03.02.05.02h.08s.05.05.05.1c0,.05.02.37.23.55.03.03.03.1-.02.1h-.08c-.05,0-.06.05-.05.07.02.04.02.13.02.18v.18s.02.02.05.02h.02s.03.02.03.05v8.6s-.12.09-.12.1c0,0-.03.04-.03.05v.12s0,.04,0,.05c0,0-.01,0-.02,0h-.12s-.03.03-.03.05v1.07h-1.2v2.07H0v2.07h32.2v-2.07h-1.25v-2.07h-1.2v-1.07s0-.05-.02-.05h-.1s-.04,0-.05,0c0,0,0-.04,0-.05v-.12s-.01-.04-.02-.05c-.01-.01-.06-.06-.1-.1v-8.6s.03-.05.03-.05h.02s.05,0,.05-.02v-.18s-.02-.14,0-.18c.01-.03.03-.07-.03-.07h-.07c-.07,0-.08-.07-.05-.1.21-.17.25-.46.25-.52,0-.05,0-.12.05-.12h.1s.02,0,.02-.02v-.38h.68c.07,0,.1-.05.1-.05l.2-1.28c.13-.25.4-.2.4-.2h.05l.2-.77s.04-.08-.05-.1l-15.32-3.27Zm-11.35,5.68h2.62v.38s.03.02.05.02h.1s.05.05.05.1c0,.05.01.37.22.55.03.03.01.1-.05.1h-.05c-.05,0-.07.05-.05.07.02.04.02.13.02.18v.18s.02.02.05.02h.03v8.65s-.09.09-.1.1-.02.04-.02.05v.12s0,.04,0,.05c0,0-.04,0-.05,0h-.1s-.02.03-.02.05v.2h-2.73v-.2s-.03-.05-.05-.05h-.12s-.02-.04-.02-.05v-.12s0-.04,0-.05c-.01-.01-.11-.06-.15-.1v-8.6s.02-.05.02-.05h.02s.05,0,.05-.02v-.18s0-.14.03-.18c.01-.03,0-.07-.05-.07h-.07c-.07,0-.06-.07-.03-.1.21-.17.23-.46.23-.52,0-.05,0-.12.05-.12h.1s.03,0,.03-.02v-.38Zm5.02,0h2.62v.38s.03.02.05.02h.07s.05.05.05.1c0,.05.04.37.25.55.03.03.01.1-.05.1h-.07c-.05,0-.04.05-.03.07.02.04.03.13.03.18v.18s0,.02.02.02h.03s.02.02.02.05v8.6l-.1.1s-.02.04-.02.05v.12s0,.04,0,.05c0,0-.04,0-.05,0h-.1s-.03.03-.03.05v.2h-2.75v-.2s0-.05-.02-.05h-.12s-.02,0-.03,0c0,0-.02-.04-.02-.05v-.12s0-.04,0-.05c-.01-.01-.09-.06-.13-.1v-8.6s.02-.05.02-.05h.03s.05,0,.05-.02v-.18s0-.14.02-.18c.02-.03,0-.07-.05-.07h-.07c-.07,0-.08-.07-.05-.1.22-.17.25-.46.25-.52,0-.05,0-.12.05-.12h.1s.02,0,.02-.02v-.38Zm5.02,0h2.62v.38s0,.02.03.02h.1s.05.05.05.1c0,.05.04.37.25.55.03.03.02.1-.05.1h-.07c-.05,0-.07.05-.05.07.02.04.03.13.03.18v.18s.02.02.05.02h.02s.02.02.02.05v8.6s-.12.09-.12.1c0,0,0,.04,0,.05v.12s0,.04,0,.05c0,0-.04,0-.05,0h-.12s0,.03,0,.05v.2h-2.75v-.2s-.04-.05-.05-.05h-.1s-.01,0-.02,0-.03-.04-.03-.05v-.12s.01-.04,0-.05c-.01-.01-.08-.06-.12-.1v-8.6s.03-.05.03-.05h.02s.03,0,.03-.02v-.18s0-.14.02-.18c.02-.03,0-.07-.05-.07h-.05c-.07,0-.08-.07-.05-.1.21-.17.25-.46.25-.52,0-.05-.03-.12.02-.12h.13s.02,0,.02-.02v-.38Zm5,0h2.65v.38s0,.02.02.02h.1s.05.05.05.1c0,.05.01.37.22.55.03.03.04.1-.02.1h-.07c-.05,0-.07.05-.05.07.02.04.02.13.02.18v.18s.02.02.05.02h.02s.03.02.03.05v8.6s-.12.09-.13.1-.03.04-.03.05v.12s0,.04,0,.05c0,0-.01,0-.02,0h-.13s-.02.03-.02.05v.2h-2.73v-.2s-.03-.05-.05-.05h-.1s-.02,0-.03,0c0,0-.02-.04-.02-.05v-.12s0-.04,0-.05c-.02-.01-.09-.06-.12-.1v-8.65h.02s.05,0,.05-.02v-.18s0-.14.02-.18c.02-.03,0-.07-.05-.07h-.05c-.07,0-.08-.07-.05-.1.22-.17.23-.46.23-.52,0-.05,0-.12.05-.12h.12s0,0,0-.02v-.38Zm5.03,0h2.62v.38s0,.02.02.02h.12s.03.05.03.1c0,.05.04.37.25.55.03.03.01.1-.05.1h-.05c-.05,0-.07.05-.05.07.02.04.03.13.03.18v.18s.01.02.05.02c0,0,.03.02.03.05v8.6s-.09.09-.1.1c0,0-.02.04-.02.05v.12s0,.04,0,.05-.04,0-.05,0h-.1s-.02.03-.02.05v.2h-2.75v-.2s0-.05-.02-.05h-.12s-.02,0-.03,0c0,0,0-.04,0-.05v-.12s-.01-.04-.02-.05c-.01-.01-.09-.06-.12-.1v-8.6s.02-.05.02-.05h.03s.05,0,.05-.02v-.18s0-.14.03-.18c.02-.03,0-.07-.05-.07h-.07c-.07,0-.06-.07-.03-.1.22-.17.23-.46.23-.52,0-.05,0-.12.05-.12h.1s.03,0,.03-.02v-.38Zm0,0"/>
  <path class="cls-1" d="m610.37,1.07c-4.96.06-14.99.71-23.38,7.7-5.59,4.66-8.9,10.92-8.9,18.38,0,5.59,1.46,14.11,12.78,20.23,6.25,3.46,13.84,5.06,20.62,6.52l8.12,1.75c4.39.93,9.32,2,13.05,4.93,2.13,1.73,4.78,4.39,4.78,10.65,0,12.91-10.78,16.63-14.78,17.7-3.73,1.06-7.32,1.05-8.65,1.05-11.05,0-17.3-3.99-20.62-7.45-5.99-6.25-6.27-14.1-6.4-16.9l-13.43,1.73c.27,2.92.93,11.45,6.52,18.9,2,2.66,4.65,5.19,7.57,7.05,9.85,6.39,22.64,6.52,25.7,6.52,15.97,0,24.48-5.04,29.67-10.1,7.32-7.19,7.85-15.57,7.85-19.3,0-6.66-2.12-10.79-3.45-13.05-5.73-9.58-17.17-12.11-20.1-12.77-2.4-.67-4.93-1.34-7.32-1.88l-10.38-2.53c-5.46-1.33-12.78-2.8-16.38-7.72-2-2.66-2.27-5.59-2.27-6.93,0-3.06,1.2-6.24,3.2-8.5,4.12-4.93,12.23-6.28,18.22-6.28,15.44,0,21.44,7.72,23.3,14.38.53,1.86.79,3.74.93,5.6l12.65-.8c-.8-4.79-1.84-9.19-4.37-13.45-1.06-1.86-3.21-5.05-7.6-8.38-7.32-5.59-16.1-7.05-25.15-7.05-.48,0-1.09,0-1.8,0h0Zm89.7,0c-4.96.06-14.97.71-23.35,7.7-5.59,4.66-8.93,10.92-8.93,18.38,0,5.59,1.46,14.11,12.78,20.23,6.25,3.46,13.86,5.06,20.65,6.52l8.1,1.75c4.39.93,9.32,2,13.05,4.93,2.13,1.73,4.8,4.39,4.8,10.65,0,12.91-10.78,16.63-14.77,17.7-3.73,1.06-7.32,1.05-8.65,1.05-11.05,0-17.3-3.99-20.62-7.45-5.99-6.25-6.27-14.1-6.4-16.9l-13.45,1.73c.27,2.92.93,11.45,6.52,18.9,2,2.66,4.67,5.19,7.6,7.05,9.85,6.39,22.61,6.52,25.67,6.52,15.97,0,24.48-5.04,29.68-10.1,7.32-7.19,7.88-15.57,7.88-19.3,0-6.66-2.14-10.79-3.48-13.05-5.72-9.58-17.17-12.11-20.1-12.77-2.4-.67-4.93-1.34-7.32-1.88l-10.38-2.53c-5.46-1.33-12.78-2.8-16.38-7.72-2-2.66-2.25-5.59-2.25-6.93,0-3.06,1.18-6.24,3.18-8.5,4.12-4.93,12.26-6.28,18.25-6.28,15.44,0,21.44,7.72,23.3,14.38.53,1.86.79,3.74.93,5.6l12.65-.8c-.8-4.79-1.87-9.19-4.4-13.45-1.07-1.86-3.18-5.05-7.58-8.38-7.32-5.59-16.12-7.05-25.17-7.05-.48,0-1.09,0-1.8,0h0Zm-252.42,2.32c-1.5.02-3.01.05-4.48.05h-35v93.98h12.25v-39.93h24.23l25.7,39.93h14.9l-26.35-40.73c5.06-.93,7.31-1.85,9.57-3.05,11.98-6.12,12.53-18.91,12.53-22.77,0-9.32-3.2-14.91-5.73-17.98-3.99-4.79-10.13-8.91-23.18-9.45-1.46-.07-2.95-.07-4.45-.05h0Zm-123.73.05v93.98h12.1v-39.8h27.15c7.19,0,10.8-.24,14.12-1.18,12.25-3.33,18.23-14.52,18.23-26.5,0-3.59-.66-15.84-11.18-22.5-6.25-3.99-12.5-4-19.82-4h-40.6Zm174.1,0v93.98h66.27v-10.9h-54.3v-32.07h45.8v-10.93h-45.8V14.5h52.72V3.45h-64.7Zm-77.6,10.4h24.35c5.59,0,11.45-.28,16.38,2.65,7.19,4.39,7.45,11.71,7.45,14.38,0,3.59-.79,6.8-2.93,9.73-4.79,6.52-13.17,6.4-20.22,6.4h-25.03V13.85Zm-84.4.4h29.02c2.8,0,4.78-.02,7.58.65,4.39,1.2,8,4.13,9.6,8.53.93,2.66.93,5.32.93,6.25,0,7.32-3.19,14.13-10.77,16.12-3.33.8-6.66.65-10.12.65h-26.23V14.25Zm0,0"/>
</svg>